<svg xmlns="http://www.w3.org/2000/svg" width="24" height="24"><rect width="24" height="24" opacity="0"></rect><g><path d="M10.73 16.27Q11.11 16.27 11.47 16.13Q11.83 15.98 12.12 15.7L18.29 9.5Q18.5 9.29 18.5 8.98Q18.5 8.66 18.29 8.45Q18.07 8.23 17.76 8.23Q17.45 8.23 17.23 8.45L11.04 14.64Q10.92 14.76 10.73 14.76Q10.54 14.76 10.42 14.64L7.27 11.5Q7.06 11.28 6.74 11.28Q6.43 11.28 6.22 11.5Q6 11.71 6 12.02Q6 12.34 6.22 12.55L9.36 15.7Q9.62 15.98 9.98 16.13Q10.34 16.27 10.73 16.27Z" fill="rgba(25,25,25,1)"></path></g><g><path d="M12 2.5Q14.57 2.5 16.75 3.78Q18.94 5.06 20.22 7.25Q21.5 9.43 21.5 12Q21.5 14.57 20.22 16.75Q18.94 18.94 16.75 20.22Q14.57 21.5 12 21.5Q9.43 21.5 7.25 20.22Q5.06 18.94 3.78 16.75Q2.5 14.57 2.5 12Q2.5 9.43 3.78 7.25Q5.06 5.06 7.25 3.78Q9.43 2.5 12 2.5ZM12 1.01Q9.02 1.01 6.49 2.48Q3.96 3.96 2.48 6.49Q1.01 9.02 1.01 12Q1.01 14.98 2.48 17.51Q3.96 20.04 6.49 21.52Q9.02 22.99 12 22.99Q14.98 22.99 17.51 21.52Q20.04 20.04 21.52 17.51Q22.99 14.98 22.99 12Q22.99 9.02 21.52 6.49Q20.04 3.96 17.51 2.48Q14.98 1.01 12 1.01Z" fill="rgba(25,25,25,1)"></path></g></svg>