<svg xmlns="http://www.w3.org/2000/svg" width="24" height="24"><rect width="24" height="24" opacity="0"></rect><g><path d="M12 15.5Q12.53 15.5 12.89 15.86Q13.25 16.22 13.25 16.75Q13.25 17.28 12.89 17.64Q12.53 18 12 18Q11.47 18 11.11 17.64Q10.75 17.28 10.75 16.75Q10.75 16.22 11.11 15.86Q11.47 15.5 12 15.5ZM12 14.52Q11.74 14.52 11.53 14.33Q11.33 14.14 11.28 13.87L10.75 7.32Q10.7 6.79 11.08 6.38Q11.45 5.98 12 5.98Q12.55 5.98 12.92 6.38Q13.3 6.79 13.25 7.32L12.72 13.87Q12.67 14.14 12.47 14.33Q12.26 14.52 12 14.52Z" fill="rgba(25,25,25,1)"></path></g><g><path d="M12 22.99Q14.98 22.99 17.51 21.52Q20.04 20.04 21.52 17.51Q22.99 14.98 22.99 12Q22.99 9.02 21.52 6.49Q20.04 3.96 17.51 2.48Q14.98 1.01 12 1.01Q9.02 1.01 6.49 2.5Q3.96 3.98 2.48 6.5Q1.01 9.02 1.01 12Q1.01 14.98 2.48 17.5Q3.96 20.02 6.49 21.5Q9.02 22.99 12 22.99ZM12 2.5Q14.57 2.5 16.75 3.78Q18.94 5.06 20.22 7.25Q21.5 9.43 21.5 12Q21.5 14.57 20.22 16.75Q18.94 18.94 16.75 20.22Q14.57 21.5 12 21.5Q9.43 21.5 7.25 20.22Q5.06 18.94 3.78 16.75Q2.5 14.57 2.5 12Q2.5 9.43 3.78 7.25Q5.06 5.06 7.25 3.78Q9.43 2.5 12 2.5Z" fill="rgba(25,25,25,1)"></path></g></svg>