<?xml version="1.0" standalone="no"?><!DOCTYPE svg PUBLIC "-//W3C//DTD SVG 1.1//EN"
        "http://www.w3.org/Graphics/SVG/1.1/DTD/svg11.dtd">
<svg t="1730792489586" class="icon" viewBox="0 0 1024 1024" version="1.1" xmlns="http://www.w3.org/2000/svg"
     p-id="12652" xmlns:xlink="http://www.w3.org/1999/xlink" width="200" height="200">
    <path d="M592.173501 540.952212c-16.96259 0.227076 3.19042 8.719725 25.341701 12.137221a225.781838 225.781838 0 0 0 16.610622-14.305798c-13.77217 3.372081-27.805477 3.451558-41.952323 2.168577M683.196985 518.255949c10.138951-13.953831 17.496219-29.21335 20.096241-44.995144-2.282116 11.240271-8.356403 20.947777-14.124138 31.21162-31.711187 19.971349-2.997405-11.853376-0.022707-23.96789-34.084133 42.951458-4.700477 25.750438-5.949396 37.751414M716.83832 430.786207c2.066393-30.553099-6.006165-20.879654-8.719725-9.242 3.156359 1.657656 5.665551 21.549529 8.719725 9.242M527.820114 13.204479c9.060339 1.612241 19.573966 2.86116 18.063909 5.029738 9.945936-2.191285 12.182637-4.166848-18.063909-5.029738M545.895377 18.234217l-6.369486 1.328395 5.938041-0.544983 0.431445-0.783412"
          fill="#dbdbdb" p-id="12653"></path>
    <path d="M828.253244 442.367092c1.021843 27.430802-8.004435 40.760173-16.167824 64.330679l-14.680474 7.300499c-12.000976 23.320723 1.19215 14.805366-7.402683 33.346136-18.756492 16.656037-56.837166 52.102628-69.031157 55.349817-8.91274-0.193015 6.028872-10.513627 7.981728-14.544229-25.080563 17.212374-20.130303 25.841268-58.494822 36.320834l-1.112674-2.509191c-94.577226 44.50693-225.963499-43.678102-224.23772-163.983058-0.999135 7.629759-2.872514 5.72232-4.961614 8.787847-4.882138-61.889611 28.58889-124.051713 85.040026-149.47289 55.213571-27.317264 119.941634-16.122408 159.464242 20.766116-21.708482-28.452644-64.955139-58.619714-116.172169-55.826677-50.195188 0.817474-97.165894 32.710323-112.834151 67.350793-25.705023 16.179177-28.702428 62.400532-39.897283 70.870473-15.089212 110.813172 28.35046 158.669476 101.843663 214.99572 11.53547 7.788713 3.247189 8.980863 4.791308 14.907551-24.410689-11.421931-46.754984-28.679721-65.148154-49.809159 9.764275 14.271737 20.289256 28.146092 33.902472 39.045748-23.036878-7.777359-53.794345-55.781262-62.7525-57.734117 39.681561 71.052134 160.974299 124.60805 224.521565 98.028784-29.406364 1.089966-66.749041 0.601752-99.765916-11.603592-13.908416-7.141546-32.744384-21.912851-29.372303-24.671826 86.697683 32.369708 176.233817 24.501519 251.237077-35.616898 19.097106-14.873489 39.942699-40.158421 45.971572-40.499035-9.071693 13.647278 1.555472 6.562501-5.415767 18.608892 18.983568-30.666637-8.276926-12.489189 19.642089-52.954164l10.309258 14.192261c-3.860295-25.477947 31.620357-56.383014 28.009846-96.643619 8.140681-12.307529 9.071693 13.261248 0.442798 41.577647 11.978268-31.415988 3.167713-36.468433 6.233241-62.400532 3.303958 8.719725 7.697882 17.973079 9.934583 27.181018-7.81142-30.371438 7.981727-51.1262 11.910145-68.781373-3.883003-1.703071-12.046391 13.420202-13.931123-22.435125 0.283845-15.577425 4.348509-8.163388 5.90398-12.000976-3.042821-1.75984-11.069963-13.704047-15.940747-36.604679 3.508327-5.393059 9.446369 13.953831 14.260384 14.737243-3.09959-18.200155-8.424526-32.085863-8.651602-46.062401-14.078723-29.406364-4.984322 3.928418-16.383546-12.625435-14.987027-46.709569 12.421067-10.842887 14.283091-32.051802 22.68491 32.869276 35.616898 83.847877 41.577647 104.954607-4.541523-25.739084-11.86473-50.683402-20.822885-74.810245 6.914469 2.917929-11.115379-52.94281 8.980863-15.952101-21.447344-78.852201-91.716066-152.538419-156.376006-187.099413 7.890897 7.232376 17.870895 16.315423 14.305798 17.746003-32.176694-19.131168-26.522497-20.641224-31.132143-28.725136-26.170529-10.661226-27.919015 0.874243-45.233573 0.022708-49.389068-26.20459-58.903559-23.422907-104.352855-39.817807l2.066393 9.673445c-32.710323-10.899656-38.114736 4.110079-73.459142 0.022708-2.14587-1.66901 11.331101-6.085641 22.435126-7.686529-31.631711 4.178202-30.155716-6.244595-61.106198 1.146735 7.618406-5.347644 15.702317-8.901386 23.831644-13.442909-25.784499 1.566826-61.583058 15.009735-50.535802 2.770329-42.065861 18.779199-116.785276 45.131389-158.714891 84.449628l-1.317042-8.810555c-19.210644 23.059585-83.779754 68.872203-88.923029 98.766781l-5.143275 1.19215c-9.979998 16.928529-16.463023 36.105111-24.387981 53.5105-13.068234 22.287526-19.165229 8.583479-17.303204 12.080452-25.716377 52.136689-38.512119 95.939683-49.536668 131.885841 7.856836 11.751192 0.193015 70.756935 3.156359 117.977426-12.897927 233.252644 163.699213 459.704357 356.736667 511.977292 28.293691 10.138951 70.359552 9.775629 106.146757 10.774765-42.21346-12.080452-47.663289-6.392194-88.809491-20.732055-29.667502-13.987892-36.16188-29.939993-57.189134-48.185564l8.322342 14.703182c-41.214325-14.589644-23.96789-18.052556-57.507041-28.668366l8.890032-11.592239c-13.363433-1.021843-35.389821-22.503249-41.40734-34.436101l-14.623705 0.579044c-17.552988-21.640359-26.91988-37.274554-26.227298-49.389068l-4.723185 8.424526c-5.347644-9.185231-64.614525-81.270562-33.868411-64.489633-5.710966-5.200044-13.306664-8.481295-21.538175-23.456968l6.255949-7.141546c-14.771305-19.040337-27.226433-43.439672-26.272713-51.568999 7.890897 10.649872 13.363433 12.648143 18.790553 14.476106-37.365384-92.692494-39.465839-5.09786-67.748176-94.350149l5.972103-0.47686c-4.575585-6.937177-7.379976-14.419337-11.058609-21.787959l2.611376-25.943453c-26.885819-31.06402-7.516221-132.215101-3.621865-187.678456 2.668145-22.548664 22.44648-46.561969 37.467568-84.222553l-9.15117-1.566825c17.507573-30.519038 99.936224-122.609779 138.130436-117.886595 18.495354-23.229892-3.678634-0.09083-7.300499-5.926689 40.635281-42.043153 53.408316-29.701563 80.827764-37.274553 29.553964-17.541634-25.375762 6.8577-11.365163-6.687394 51.1262-13.045526 36.21865-29.678856 102.899568-36.298126 7.039361 3.996541-16.315423 6.176472-22.173988 11.365163 42.576782-20.845593 134.758355-16.088347 194.661049 11.558177 69.451247 32.483246 147.531389 128.456991 150.619625 218.753831l3.508327 0.942366c-1.771194 35.900743 5.495243 77.421621-7.118838 115.54771l8.52671-18.063909"
          fill="#dbdbdb" p-id="12654"></path>
    <path d="M406.981529 564.22752l-2.395654 11.887437c11.160794 15.157335 20.016765 31.574942 34.243087 43.382903-10.241135-19.971349-17.836833-28.225568-31.847433-55.27034M433.333718 563.205677c-5.90398-6.539794-9.378246-14.396629-13.306663-22.20805 3.746757 13.749462 11.421931 25.568777 18.540769 37.603814l-5.234106-15.395764M899.793592 461.816166l-2.486484 6.267302a301.670695 301.670695 0 0 1-29.576671 94.338796 297.356248 297.356248 0 0 0 32.063155-100.606098M531.192195 5.063799C542.648188 0.874243 559.372348 2.758975 571.566338 0c-15.872624 1.328396-31.665772 2.123162-47.254551 4.110079l6.880408 0.95372M128.461249 219.219337c2.645437 24.456104-18.39317 33.959242 4.655062 17.814126 12.375651-27.862246-4.814015-7.686528-4.655062-17.814126M101.348354 332.462224c5.324936-16.315423 6.278656-26.102406 8.310988-35.560128-14.680475 18.779199-6.76687 22.787094-8.310988 35.560128"
          fill="#dbdbdb" p-id="12655"></path>
</svg>